HIERARCHY
ROOT Hips
{
  OFFSET 47.3721 84.1603 34.9771
  CHANNELS 6 Xposition Yposition Zposition Zrotation Xrotation Yrotation
  JOINT spine
  {
    OFFSET 0 6.24479 0.359107
    CHANNELS 3 Zrotation Xrotation Yrotation
    JOINT spine1
    {
      OFFSET 0 9.06941 0
      CHANNELS 3 Zrotation Xrotation Yrotation
      JOINT spine2
      {
        OFFSET 0 8.69014 0
        CHANNELS 3 Zrotation Xrotation Yrotation
        JOINT Neck
        {
          OFFSET 0 22.3112 1.06372
          CHANNELS 3 Zrotation Xrotation Yrotation
          JOINT Head
          {
            OFFSET 0 6.74081 0
            CHANNELS 3 Zrotation Xrotation Yrotation
            End Site
            {
              OFFSET 0 16.3165 -5.38097
            }
          }
        }
        JOINT RightShoulder
        {
          OFFSET -3.65916 9.38468 -0.509514
          CHANNELS 3 Zrotation Xrotation Yrotation
          JOINT RightArm
          {
            OFFSET 0 12.3089 0
            CHANNELS 3 Zrotation Xrotation Yrotation
            JOINT RightArmRoll
            {
              OFFSET 0 6.21375 0
              CHANNELS 3 Zrotation Xrotation Yrotation
              JOINT RightForeArm
              {
                OFFSET 0 18.0985 0
                CHANNELS 3 Zrotation Xrotation Yrotation
                JOINT RightForeArmRoll
                {
                  OFFSET 0 6.97279 0
                  CHANNELS 3 Zrotation Xrotation Yrotation
                  JOINT RightHand
                  {
                    OFFSET 0 13.9929 0
                    CHANNELS 3 Zrotation Xrotation Yrotation
                    End Site
                    {
                      OFFSET 0 0 0
                    }
                  }
                }
              }
            }
          }
        }
        JOINT LeftShoulder
        {
          OFFSET 3.65916 9.38468 -0.509514
          CHANNELS 3 Zrotation Xrotation Yrotation
          JOINT LeftArm
          {
            OFFSET 0 12.3089 0
            CHANNELS 3 Zrotation Xrotation Yrotation
            JOINT LeftArmRoll
            {
              OFFSET 0 6.21375 0
              CHANNELS 3 Zrotation Xrotation Yrotation
              JOINT LeftForeArm
              {
                OFFSET 0 18.0985 0
                CHANNELS 3 Zrotation Xrotation Yrotation
                JOINT LeftForeArmRoll
                {
                  OFFSET 0 6.97279 0
                  CHANNELS 3 Zrotation Xrotation Yrotation
                  JOINT LeftHand
                  {
                    OFFSET 0 13.9929 0
                    CHANNELS 3 Zrotation Xrotation Yrotation
                    End Site
                    {
                      OFFSET 0 0 0
                    }
                  }
                }
              }
            }
          }
        }
      }
    }
  }
  JOINT RightUpLeg
  {
    OFFSET -5.53515 -1.015 -0.851454
    CHANNELS 3 Zrotation Xrotation Yrotation
    JOINT RightUpLegRoll
    {
      OFFSET 0 16.4075 0
      CHANNELS 3 Zrotation Xrotation Yrotation
      JOINT RightLeg
      {
        OFFSET 0 -20.3181 0
        CHANNELS 3 Zrotation Xrotation Yrotation
        JOINT RightLegRoll
        {
          OFFSET 0 20.3846 0
          CHANNELS 3 Zrotation Xrotation Yrotation
          JOINT RightFoot
          {
            OFFSET 0 16.9668 0
            CHANNELS 3 Zrotation Xrotation Yrotation
            JOINT RightToeBase
            {
              OFFSET 0 14.1834 0
              CHANNELS 3 Zrotation Xrotation Yrotation
              End Site
              {
                OFFSET 0.0060118 6.8689 -0.791746
              }
            }
          }
        }
      }
    }
  }
  JOINT LeftUpLeg
  {
    OFFSET 5.53515 -1.015 -0.851454
    CHANNELS 3 Zrotation Xrotation Yrotation
    JOINT LeftUpLegRoll
    {
      OFFSET 0 16.4076 0
      CHANNELS 3 Zrotation Xrotation Yrotation
      JOINT LeftLeg
      {
        OFFSET 0 20.3181 0
        CHANNELS 3 Zrotation Xrotation Yrotation
        JOINT LeftLegRoll
        {
          OFFSET 0 20.5731 0
          CHANNELS 3 Zrotation Xrotation Yrotation
          JOINT LeftFoot
          {
            OFFSET 0 16.7783 0
            CHANNELS 3 Zrotation Xrotation Yrotation
            JOINT LeftToeBase
            {
              OFFSET 0 14.1834 0
              CHANNELS 3 Zrotation Xrotation Yrotation
              End Site
              {
                OFFSET -0.0269423 6.8689 -0.791746
              }
            }
          }
        }
      }
    }
  }
}
MOTION
Frames: 8
Frame Time: 0.00208333
48.6521 60.0741 3.83453 -2.62636 45.7072 -6.05219 0.380978 -0.425052 -0.147968 0.763652 3.13754 -0.351403 0.768898 4.78252 -0.364581 -10.0744 -22.9733 -0.0533279 3.11481 15.8662 -0.281152 37.8936 -10.5378 -6.63367 148.395 40.0252 -72.5067 -2.06736e-014 -1.59028e-014 -0 37.4403 56.0503 -22.4702 3.1958e-006 -2.44361e-005 -3 8.02896 -4.95147 0.697676 -53.6598 -9.55184 5.88405 -108.88 54.7998 53.2965 -6.84636e-006 -1.63843e-006 6.41556e-007 -42.9691 51.7826 23.3644 2.03251e-006 -1.11716e-005 3.00001 -8.02887 -4.951 -0.697491 -26.5775 64.2844 -155.763 180 1.52584e-005 179.616 176.324 73.1001 -178.203 -1.95888e-006 -6.39152e-006 1.13269 -18.9516 69.2732 20.6328 8.14004 25.2887 -3.41185 -4.47887 64.8121 -165.382 4.54188e-006 -4.6773e-006 -0.471902 28.3167 -82.8481 26.3809 -3.99093e-006 -2.56277e-006 -2.07124 25.2009 74.3643 -26.8949 -8.17659 26.1489 2.30214 
48.6565 60.075 3.93842 -2.62624 45.6598 -6.06698 0.377866 -0.424454 -0.146799 0.757355 3.13699 -0.349715 0.762561 4.78197 -0.36278 -10.0025 -22.8947 -0.0448369 3.05362 15.8258 -0.275941 37.9462 -10.5178 -6.61482 148.366 40.0243 -72.3526 -3.18055e-015 3.97569e-015 -1.27222e-014 37.36 55.9162 -22.3546 3.1958e-006 -2.44361e-005 -3 8.02896 -4.95147 0.697676 -53.7136 -9.51827 5.86099 -108.918 54.7781 53.1645 -6.84636e-006 -1.63843e-006 6.41556e-007 -42.8911 51.6395 23.2407 2.03251e-006 -1.11716e-005 3.00001 -8.02887 -4.951 -0.697491 -26.7501 64.3697 -155.637 180 1.52584e-005 179.61 176.583 73.1791 -178.384 -1.95888e-006 -6.39152e-006 1.15006 -19.1375 69.3835 20.7375 8.14058 25.2968 -3.40085 -4.53243 64.9599 -165.336 4.54188e-006 -4.6773e-006 -0.475525 28.3388 -82.8291 26.3911 -3.99093e-006 -2.56277e-006 -2.07753 25.2909 74.4241 -26.9928 -8.1766 26.1562 2.29262 
48.6566 60.1128 4.02578 -2.62547 45.6112 -6.08173 0.374812 -0.423907 -0.145726 0.751169 3.13643 -0.34815 0.756338 4.78141 -0.361104 -9.9374 -22.8205 -0.0366217 3.00083 15.7903 -0.271197 37.9972 -10.4974 -6.59559 148.338 40.023 -72.1973 -1.27222e-014 -1.59028e-015 3.18055e-015 37.2779 55.7819 -22.2384 3.1958e-006 -2.44361e-005 -3 8.02896 -4.95147 0.697676 -53.7704 -9.48408 5.83761 -108.954 54.7573 53.0309 -6.84636e-006 -1.63843e-006 6.41556e-007 -42.8144 51.4941 23.1168 2.03251e-006 -1.11716e-005 3.00001 -8.02887 -4.951 -0.697491 -26.922 64.4566 -155.509 180 1.52584e-005 179.603 176.836 73.2575 -178.56 -1.95888e-006 -6.39151e-006 1.16694 -19.32 69.4931 20.8427 8.14113 25.3051 -3.38965 -4.58475 65.1078 -165.292 4.54188e-006 -4.6773e-006 -0.479123 28.3702 -82.8119 26.4105 -3.99093e-006 -2.56277e-006 -2.084 25.3821 74.4842 -27.092 -8.17662 26.1639 2.28266 
48.6624 60.2123 4.07742 -2.62402 45.5616 -6.09646 0.371852 -0.423444 -0.144777 0.745175 3.13582 -0.346745 0.750308 4.78081 -0.359592 -9.88091 -22.7513 -0.0286672 2.95854 15.7612 -0.266988 38.0465 -10.4765 -6.57596 148.31 40.0212 -72.041 -1.11319e-014 -9.54166e-015 -1.59028e-014 37.1943 55.6475 -22.1216 3.1958e-006 -2.44361e-005 -3 8.02896 -4.95147 0.697676 -53.8305 -9.44934 5.81398 -108.987 54.7375 52.8954 -6.84636e-006 -1.63843e-006 6.41556e-007 -42.7393 51.3466 22.9927 2.03251e-006 -1.11716e-005 3.00001 -8.02887 -4.951 -0.697491 -27.0926 64.5454 -155.379 180 1.52584e-005 179.597 177.077 73.3346 -178.729 -1.95888e-006 -6.39151e-006 1.18306 -19.4973 69.6017 20.9479 8.14169 25.3134 -3.37834 -4.63531 65.2555 -165.249 4.54188e-006 -4.6773e-006 -0.482664 28.4148 -82.7973 26.4428 -3.99093e-006 -2.56277e-006 -2.0907 25.4745 74.5447 -27.1926 -8.17666 26.172 2.27213 
48.6519 60.3912 4.08402 -2.62186 45.5111 -6.11119 0.369025 -0.4231 -0.143983 0.739453 3.13515 -0.345536 0.744555 4.78013 -0.358281 -9.83493 -22.6883 -0.0209585 2.92887 15.7396 -0.263383 38.0938 -10.4552 -6.55593 148.284 40.0189 -71.8841 -2.38542e-015 -7.95139e-015 6.36111e-015 37.109 55.5128 -22.0043 3.1958e-006 -2.44361e-005 -3 8.02896 -4.95147 0.697676 -53.8946 -9.41414 5.79018 -109.017 54.7185 52.7576 -6.84636e-006 -1.63843e-006 6.41556e-007 -42.6658 51.1973 22.8686 2.03251e-006 -1.11716e-005 3.00001 -8.02887 -4.951 -0.697491 -27.2613 64.6363 -155.246 180 1.52584e-005 179.591 177.302 73.4095 -178.887 -1.95888e-006 -6.39151e-006 1.19816 -19.6674 69.7087 21.0526 8.14225 25.3217 -3.367 -4.68368 65.4025 -165.209 4.54188e-006 -4.6773e-006 -0.486119 28.4761 -82.7861 26.4916 -3.99093e-006 -2.56277e-006 -2.09768 25.5686 74.6057 -27.2951 -8.17672 26.1807 2.26089 
48.6217 60.4801 4.14283 -2.61894 45.4598 -6.12594 0.366368 -0.422908 -0.143372 0.734084 3.13437 -0.34456 0.739159 4.77936 -0.35721 -9.80131 -22.6321 -0.0134805 2.91393 15.7269 -0.260449 38.139 -10.4333 -6.53549 148.26 40.0164 -71.7268 0 1.43125e-014 -0 37.0221 55.3777 -21.8863 3.1958e-006 -2.44361e-005 -3 8.02896 -4.95147 0.697676 -53.9631 -9.37857 5.76629 -109.042 54.7004 52.6173 -6.84636e-006 -1.63843e-006 6.41556e-007 -42.5939 51.0462 22.7445 2.03251e-006 -1.11716e-005 3.00001 -8.02887 -4.951 -0.697491 -27.4273 64.7296 -155.109 180 1.52584e-005 179.586 177.505 73.4814 -179.029 -1.95888e-006 -6.39151e-006 1.21196 -19.8285 69.814 21.1565 8.14279 25.33 -3.35572 -4.72932 65.5481 -165.172 4.54188e-006 -4.6773e-006 -0.489457 28.5579 -82.7791 26.5605 -3.99093e-006 -2.56277e-006 -2.10499 25.6646 74.6675 -27.3997 -8.17682 26.1901 2.2488 
48.6272 60.5103 4.23315 -2.61524 45.4078 -6.14073 0.363921 -0.422902 -0.142974 0.729149 3.13347 -0.343853 0.734202 4.77846 -0.356416 -9.78194 -22.5836 -0.00621804 2.91583 15.7245 -0.258255 38.1819 -10.411 -6.51462 148.237 40.0135 -71.5692 -7.95139e-015 -9.54166e-015 -9.54166e-015 36.9335 55.2422 -21.7678 3.1958e-006 -2.44361e-005 -3 8.02896 -4.95147 0.697676 -54.0366 -9.34271 5.74237 -109.063 54.6831 52.4742 -6.84636e-006 -1.63843e-006 6.41556e-007 -42.5236 50.8935 22.6206 2.03251e-006 -1.11716e-005 3.00001 -8.02887 -4.951 -0.697491 -27.5901 64.8256 -154.969 180 1.52584e-005 179.581 177.681 73.5494 -179.151 -1.95888e-006 -6.39151e-006 1.22422 -19.9786 69.9171 21.2589 8.14334 25.3381 -3.34458 -4.77172 65.6919 -165.138 4.54188e-006 -4.6773e-006 -0.492647 28.6639 -82.7768 26.6533 -3.99093e-006 -2.56277e-006 -2.1127 25.7627 74.7302 -27.5067 -8.17695 26.2002 2.23573 
48.6373 60.5433 4.32279 -2.61071 45.3553 -6.15557 0.361721 -0.423115 -0.142819 0.724728 3.1324 -0.343451 0.729766 4.77739 -0.355936 -9.77868 -22.5439 0.000844099 2.93668 15.7336 -0.25687 38.2224 -10.3882 -6.49333 148.218 40.0104 -71.4118 5.56597e-015 1.43125e-014 -3.18055e-015 36.8432 55.1062 -21.6486 3.1958e-006 -2.44361e-005 -3 8.02896 -4.95147 0.697676 -54.1155 -9.30665 5.71851 -109.078 54.6665 52.3279 -6.84636e-006 -1.63843e-006 6.41556e-007 -42.4551 50.7393 22.4968 2.03251e-006 -1.11716e-005 3.00001 -8.02887 -4.951 -0.697491 -27.7489 64.9245 -154.824 180 1.52584e-005 179.576 177.825 73.6128 -179.251 -1.95888e-006 -6.39151e-006 1.23465 -20.1159 70.0176 21.3595 8.14386 25.3461 -3.33367 -4.81037 65.8335 -165.108 4.54188e-006 -4.6773e-006 -0.495658 28.7981 -82.7802 26.7737 -3.99093e-006 -2.56277e-006 -2.12085 25.8632 74.7939 -27.6164 -8.17712 26.2112 2.22156 
